# xmcd
#
# Track frame offsets: 
#        150
#        19726
#        48019
#        59864
#        73045
#        85427
#        97490
#        110064
#        121831
#        132963
#        143374
#        154018
#        165490
#        188120
#
# Disc length: 2953 seconds
#
# Revision: 4
# Processed by: cddbd v1.5.2PL0 Copyright (c) Steve Scherf et al.
# Submitted via: ExactAudioCopy v0.95b4
#
DISCID=c40b870e
DTITLE=Ray Charles - Forever Gold
DYEAR=1999
DGENRE=Blues
TTITLE0=Talkin' Bout You
TTITLE1=I Got A Woman
TTITLE2=Tell Me Baby
TTITLE3=Baby Won't You Please Come Home
TTITLE4=Heartbreaker
TTITLE5=Can't You See Darling
TTITLE6=Leave My Woman Alone
TTITLE7=She's On The Ball
TTITLE8=A Sentimental Blues
TTITLE9=Sittin' On Top Of The World
TTITLE10=Ain't That Fine
TTITLE11=You Be My Baby
TTITLE12=What'd I Say
TTITLE13=Georgia On My Mind
EXTD=
EXTT0=
EXTT1=
EXTT2=
EXTT3=
EXTT4=
EXTT5=
EXTT6=
EXTT7=
EXTT8=
EXTT9=
EXTT10=
EXTT11=
EXTT12=
EXTT13=
PLAYORDER=
